<svg id="Ebene_1" data-name="Ebene 1" xmlns="http://www.w3.org/2000/svg" viewBox="0 0 5985.1 1629.01"><defs><style>.cls-1{fill:#1a1a1a;}.cls-2{fill:#1b1b1b;}.cls-3{fill:#2f98bb;}</style></defs><title>zationWideLogo</title><path class="cls-1" d="M2553.89,724h707.46v80.35L2784,1469.22h477.34v162h-719.3v-98.5l466.82-648h-455Z" transform="translate(-574.19 -386.14)"/><path class="cls-1" d="M3929.36,992.29h153.85v638.93H3932l-7.89-93.32c-36.82,75.17-138.07,111.46-210.4,112.76-192,1.29-334-115.35-334-339.56,0-220.32,148.59-335.66,338-334.37,86.79,0,169.63,40.18,206.45,103.68ZM3540.12,1311.1c0,121.83,85.48,194.4,192,194.4,252.48,0,252.48-387.5,0-387.5C3625.6,1118,3540.12,1189.28,3540.12,1311.1Z" transform="translate(-574.19 -386.14)"/><path class="cls-1" d="M4450.09,812.14V993.58h178.84v136.08H4448.78v276c0,60.91,34.19,90.72,84.16,90.72,25,0,53.91-7.77,77.58-19.44l44.71,134.79c-46,18.14-84.16,25.92-132.81,27.21-140.71,5.19-232.75-73.87-232.75-233.28v-276h-121V993.58h121V829Z" transform="translate(-574.19 -386.14)"/><path class="cls-1" d="M4956.35,812.14c0,123.12-189.36,123.12-189.36,0S4956.35,689,4956.35,812.14ZM4781.46,989.69v641.53h160.43V989.69Z" transform="translate(-574.19 -386.14)"/><path class="cls-1" d="M5778.19,1312.4c0,184-127.55,333.07-337.95,333.07s-336.63-149-336.63-333.07c0-182.74,128.86-333.07,335.32-333.07S5778.19,1129.66,5778.19,1312.4Zm-514.16,0c0,97.2,59.18,187.92,176.21,187.92s176.21-90.72,176.21-187.92c0-95.91-68.38-189.22-176.21-189.22C5324.52,1123.18,5264,1216.49,5264,1312.4Z" transform="translate(-574.19 -386.14)"/><path class="cls-1" d="M6398.86,1631.22V1296.85c0-97.2-53.92-171.08-156.49-171.08-98.62,0-165.68,81.65-165.68,178.85v326.6H5917.57V991h143.34l10.52,86.83c65.75-63.5,131.5-95.9,213-95.9,152.54,0,274.84,112.75,274.84,313.63v335.67Z" transform="translate(-574.19 -386.14)"/><path class="cls-2" d="M2124.43,2015.15H653a78.74,78.74,0,0,1-78.77-78.77V464.91A78.74,78.74,0,0,1,653,386.14H2124.43a78.74,78.74,0,0,1,78.77,78.77V1936.38C2203.35,1979.76,2168,2015.15,2124.43,2015.15Z" transform="translate(-574.19 -386.14)"/><path class="cls-3" d="M1400.14,548.49l132.69,80-69.73,39.61-59.5-30L906.44,926.53l-1.66,316.28L1301,1485.45l-79.37,43.07L826.61,1288.75V880Zm164.47,326.68-83.29,42.32,385.57,237.82-.15,319.75-480.91,290.38-54.22-31.63-68.37,38.7,124.7,80.13,560.73-333,2.26-405.9Z" transform="translate(-574.19 -386.14)"/><path class="cls-3" d="M1022.26,999.58,1600,671.39l350.93,195.05v150.61l-83.44-50.91V913.58l-270-152.72L1095,1046.72l1.21,216.28-74.1-41V999.58ZM826.61,1534l348.07,194.59,577-325.33V1178.65l-73.05-38.85.91,216.73L1175,1643.14,903.12,1489.51v-55.42l-76.51-46.54Z" transform="translate(-574.19 -386.14)"/></svg>