<svg id="Ebene_1" data-name="Ebene 1" xmlns="http://www.w3.org/2000/svg" viewBox="0 0 1159.17 1344.55"><defs><style>.cls-1{fill:#2f99bb;}.cls-2{fill:#3099bb;}</style></defs><title>zationLogoFaviconFullFilled</title><path class="cls-1" d="M720.47,36.39l136.74,82.39-71.88,40.91-61.36-31L211.47,426.17l-1.75,326.08L618.2,1002.36l-81.81,44.41L129.08,799.58V378.25ZM890,373.23l-86,43.56L1201.64,662l-.19,329.59L705.6,1291.07l-55.87-32.63L579.2,1298.3l128.55,82.64,578.1-343.27,2.4-418.47Z" transform="translate(-129.08 -36.39)"/><path class="cls-2" d="M330.77,501.45,926.45,163.18l361.8,201V519.49l-86-52.51V412.85L923.88,255.32l-518,294.78L407.12,773l-76.35-42.21ZM129.08,1052.34,487.92,1253,1082.7,917.58V686.06l-75.27-40,1,223.46L488.25,1164.91,208,1006.63V949.51l-78.92-48.06Z" transform="translate(-129.08 -36.39)"/></svg>