<?xml version="1.0" encoding="utf-8"?>
<svg version="1.1" id="Ebene_1" xmlns="http://www.w3.org/2000/svg" xmlns:xlink="http://www.w3.org/1999/xlink" x="0px" y="0px"
	 viewBox="0 0 7083.78 2167.72" style="enable-background:new 0 0 7083.78 2167.72;" xml:space="preserve">
<style type="text/css">
	.st0{fill:#FFFFFF;}
	.st1{display:none;fill:#2F99BB;enable-background:new    ;}
	.st2{font-family:'ArialMT';}
	.st3{font-size:300px;}
	.st4{display:none;fill:#2F99BB;}
	.st5{fill:#151d22;}
	.st6{display:none;fill:#2F98BB;}
	.st7{clip-path:url(#SVGID_00000180361757011680855700000006244848634488417973_);}
	.st8{display:none;clip-path:url(#SVGID_00000023251647490260923370000015842345627503538862_);fill:#151822;}
	.st9{clip-path:url(#SVGID_00000023982268413490008030000016594550849266395803_);fill:#16B7EC;}
	.st10{clip-path:url(#SVGID_00000010310558843444930050000010700487245882357423_);fill:#16B7EC;}
</style>
<path class="st0" d="M6803.95,2115.6H279.83c-138.06,0-249.98-111.92-249.98-249.98V302.1c0-138.06,111.92-249.98,249.98-249.98
	h6524.11c138.06,0,249.98,111.92,249.98,249.98v1563.53C7053.92,2003.68,6942,2115.6,6803.95,2115.6z"/>
<text transform="matrix(1.9833 0 0 1 3381.9912 1162.7279)" class="st1 st2 st3">Z</text>
<circle class="st4" cx="3541.86" cy="1078.49" r="111.37"/>
<g>
	<path class="st5" d="M2412.55,554.87h785.18v89.18l-529.78,737.88h529.78v179.8h-798.32v-109.32l518.1-719.18h-504.97V554.87
		H2412.55z"/>
	<path class="st5" d="M3939.11,852.61h170.75v709.12h-167.83l-8.76-103.56c-40.86,83.43-153.24,123.7-233.51,125.14
		c-213.08,1.44-370.7-128.01-370.7-376.85c0-244.52,164.91-372.54,375.07-371.1c96.32,0,188.26,44.59,229.13,115.07L3939.11,852.61z
		 M3507.13,1206.45c0,135.2,94.86,215.76,213.08,215.76c280.22,0,280.22-430.08,0-430.08
		C3601.99,992.13,3507.13,1071.24,3507.13,1206.45z"/>
	<path class="st5" d="M4517.06,652.68v201.37h198.49v151.03H4515.6v306.37c0,67.6,37.95,100.69,93.41,100.69
		c27.74,0,59.84-8.63,86.1-21.58l49.62,149.59c-51.08,20.13-93.41,28.77-147.4,30.21c-156.16,5.75-258.32-81.98-258.32-258.91
		v-306.37h-134.27V854.05h134.27V671.38L4517.06,652.68z"/>
	<path class="st5" d="M5078.92,652.68c0,136.64-210.16,136.64-210.16,0S5078.92,516.04,5078.92,652.68z M4884.82,849.74v711.99
		h178.05V849.74H4884.82z"/>
	<path class="st5" d="M5991.05,1207.9c0,204.25-141.56,369.66-375.07,369.66c-233.51,0-373.62-165.41-373.62-369.66
		c0-202.81,143.03-369.66,372.16-369.66S5991.05,1005.08,5991.05,1207.9z M5420.41,1207.9c0,107.88,65.67,208.56,195.57,208.56
		c129.89,0,195.57-100.69,195.57-208.56c0-106.43-75.89-210.01-195.57-210.01C5487.55,997.89,5420.41,1101.45,5420.41,1207.9z"/>
	<path class="st5" d="M6679.89,1561.73v-371.1c0-107.88-59.83-189.86-173.67-189.86c-109.45,0-183.89,90.62-183.89,198.5v362.47
		h-176.59V851.18h159.08l11.68,96.37c72.97-70.48,145.95-106.43,236.43-106.43c169.3,0,305.02,125.14,305.02,348.08v372.54h-178.05
		V1561.73z"/>
</g>
<path class="st5" d="M1935.91,1987.83H302.8c-48.31,0-87.42-39.11-87.42-87.42V267.3c0-48.31,39.11-87.42,87.42-87.42h1633.11
	c48.31,0,87.42,39.11,87.42,87.42v1633.12C2023.5,1948.56,1984.22,1987.83,1935.91,1987.83z"/>
<path class="st6" d="M1022.26,949.58L1600,621.39l350.92,195.04v150.61l-83.44-50.91v-52.56l-270.05-152.72L1095,996.72l1.2,216.28
	l-74.1-40.97V949.58H1022.26z M826.61,1483.95l348.06,194.59l576.99-325.32v-224.56l-73.05-38.86l0.9,216.73l-504.55,286.61
	l-271.85-153.62v-55.43l-76.51-46.54v146.4H826.61z"/>
<g>
	<g>
		<g>
			<defs>
				<rect id="SVGID_1_" x="181.85" y="146.35" width="1875.03" height="1875.03"/>
			</defs>
			<clipPath id="SVGID_00000075139358108732425430000003665718439440494748_">
				<use xlink:href="#SVGID_1_"  style="overflow:visible;"/>
			</clipPath>
			<g style="clip-path:url(#SVGID_00000075139358108732425430000003665718439440494748_);">
				<g>
					<defs>
						
							<rect id="SVGID_00000090279893999534989470000014312687978523727025_" x="181.85" y="146.35" width="1875.03" height="1875.03"/>
					</defs>
					<clipPath id="SVGID_00000138561070729923640610000016506294616869212549_">
						<use xlink:href="#SVGID_00000090279893999534989470000014312687978523727025_"  style="overflow:visible;"/>
					</clipPath>
					<path style="display:none;clip-path:url(#SVGID_00000138561070729923640610000016506294616869212549_);fill:#151822;" d="
						M1119.36,1987.81L1119.36,1987.81c-499.24,0-903.96-404.72-903.96-903.95l0,0c0-499.24,404.72-903.95,903.95-903.95l0,0
						c499.24,0,903.95,404.72,903.95,903.95l0,0C2023.31,1583.1,1618.59,1987.81,1119.36,1987.81"/>
				</g>
				<g>
					<defs>
						
							<rect id="SVGID_00000083055786859914783250000000049944384147525790_" x="181.85" y="146.35" width="1875.03" height="1875.03"/>
					</defs>
					<clipPath id="SVGID_00000060709565563361517830000003719158308904893594_">
						<use xlink:href="#SVGID_00000083055786859914783250000000049944384147525790_"  style="overflow:visible;"/>
					</clipPath>
					<path style="clip-path:url(#SVGID_00000060709565563361517830000003719158308904893594_);fill:#16B7EC;" d="M1132.21,351.97
						l148.86,89.7l-78.26,44.54l-66.8-33.75L578.07,776.31l-1.91,355l444.7,272.29l-89.07,48.35l-443.43-269.11V724.15
						L1132.21,351.97z M1316.77,718.69l-93.63,47.42l432.9,266.95l-0.21,358.81l-539.82,326.03l-60.82-35.53l-76.78,43.4
						l139.95,89.96l629.36-373.71l2.61-455.57L1316.77,718.69z"/>
				</g>
				<g>
					<defs>
						
							<rect id="SVGID_00000114064514910242198840000009597771946712055230_" x="181.85" y="146.35" width="1875.03" height="1875.03"/>
					</defs>
					<clipPath id="SVGID_00000086692796759519894270000005296777189738766743_">
						<use xlink:href="#SVGID_00000114064514910242198840000009597771946712055230_"  style="overflow:visible;"/>
					</clipPath>
					<path style="clip-path:url(#SVGID_00000086692796759519894270000005296777189738766743_);fill:#16B7EC;" d="M707.95,858.27
						l648.5-368.26l393.89,218.82v169.09l-93.63-57.17v-58.93l-303.06-171.49L789.72,911.23l1.35,242.67l-83.12-45.96V858.27H707.95
						z M488.38,1458.01l390.66,218.45l647.52-365.16v-252.05l-81.94-43.55l1.09,243.28l-566.3,321.58l-305.1-172.32v-62.19
						l-85.91-52.32v164.27H488.38z"/>
				</g>
			</g>
		</g>
	</g>
</g>
</svg>
