<?xml version="1.0" encoding="utf-8"?>
<!-- Generator: Adobe Illustrator 22.1.0, SVG Export Plug-In . SVG Version: 6.00 Build 0)  -->
<svg version="1.1" id="Ebene_1" xmlns="http://www.w3.org/2000/svg" xmlns:xlink="http://www.w3.org/1999/xlink" x="0px" y="0px"
	 viewBox="0 0 1417.3 1417.3" style="enable-background:new 0 0 1417.3 1417.3;" xml:space="preserve">
<style type="text/css">
	.st0{fill:#2F99BB;}
	.st1{fill:#3099BB;}
</style>
<title>zationLogoFaviconFullFilled</title>
<path class="st0" d="M720.5,33.7l137.3,82.7l-72.2,41.1L724,126.3L209.5,425l-1.8,327.4l410.1,251.1l-82.1,44.6l-409-248.2v-423
	L720.5,33.7z M890.7,371.9l-86.3,43.7l399.2,246.2l-0.2,330.9l-497.9,300.7l-56.1-32.8l-70.8,40l129.1,83l580.4-344.7l2.4-420.2
	L890.7,371.9z"/>
<path class="st1" d="M329.2,500.6L927.3,161l363.3,201.8v155.9l-86.3-52.7v-54.3L924.7,253.5l-520.1,296l1.2,223.8l-76.7-42.4V500.6
	z M126.7,1053.7L487,1255.2l597.2-336.8V686l-75.6-40.2l1,224.4l-522.3,296.6L206,1007.8v-57.4l-79.2-48.3V1053.7z"/>
</svg>
