<?xml version="1.0" encoding="utf-8"?>
<svg version="1.1" id="Ebene_1" xmlns="http://www.w3.org/2000/svg" xmlns:xlink="http://www.w3.org/1999/xlink" x="0px" y="0px"
	 viewBox="0 0 6292.91 1927.56" style="enable-background:new 0 0 6292.91 1927.56;" xml:space="preserve">
<style type="text/css">
	.st0{display:none;fill:#2F99BB;}
	.st1{font-family:'MyriadPro-Regular';}
	.st2{font-size:300px;}
	.st3{fill:#151d22;}
	.st4{display:none;fill:#26282F;}
	.st5{fill:#FFFFFF;}
	.st6{display:none;fill:#2F98BB;}
	.st7{clip-path:url(#SVGID_00000127045042407431562480000007019484726012786329_);}
	.st8{display:none;clip-path:url(#SVGID_00000139974216790727385930000002028504406544612752_);fill:#151822;}
	.st9{clip-path:url(#SVGID_00000139974216790727385930000002028504406544612752_);fill:#16B7EC;}
</style>
<text transform="matrix(1.9833 0 0 1 2986.5583 1042.6492)" class="st0 st1 st2">Z</text>
<path class="st3" d="M6016.55,1896.67H276.36c-144.08,0-260.88-116.8-260.88-260.88V284.85c0-144.08,116.8-260.88,260.88-260.88
	h5740.19c144.08,0,260.88,116.8,260.88,260.88v1350.94C6277.43,1779.87,6160.63,1896.67,6016.55,1896.67z"/>
<path class="st4" d="M6066.81,1778.29H425.67c-166.87,0-301.98-35.9-301.98-80.23V199.29c0-44.33,135.11-80.23,301.98-80.23h5641.14
	c166.87,0,301.98,35.9,301.98,80.23v1498.76C6369.37,1742.24,6233.68,1778.29,6066.81,1778.29z"/>
<circle class="st0" cx="3146.43" cy="958.41" r="111.37"/>
<g>
	<path class="st5" d="M2003.78,527.17h690.55v78.43l-465.93,648.96h465.93v158.13h-702.1v-96.14l455.66-632.51h-444.11V527.17z"/>
	<path class="st5" d="M3346.38,789.03h150.18v623.66h-147.61l-7.7-91.08c-35.94,73.37-134.77,108.79-205.37,110.06
		c-187.4,1.26-326.02-112.59-326.02-331.44c0-215.05,145.04-327.64,329.87-326.38c84.71,0,165.58,39.22,201.52,101.2L3346.38,789.03
		z M2966.45,1100.23c0,118.91,83.43,189.75,187.4,189.75c246.44,0,246.44-378.24,0-378.24
		C3049.88,911.74,2966.45,981.32,2966.45,1100.23z"/>
	<path class="st5" d="M3854.67,613.19v177.1h174.56v132.83h-175.85v269.45c0,59.46,33.37,88.55,82.15,88.55
		c24.39,0,52.63-7.59,75.73-18.98l43.64,131.56c-44.92,17.71-82.15,25.3-129.64,26.57c-137.34,5.06-227.19-72.11-227.19-227.71
		V923.12h-118.09V790.3h118.09V629.64L3854.67,613.19z"/>
	<path class="st5" d="M4348.82,613.19c0,120.18-184.83,120.18-184.83,0C4163.99,493.02,4348.82,493.02,4348.82,613.19z
		 M4178.11,786.5v626.19h156.59V786.5H4178.11z"/>
	<path class="st5" d="M5151.02,1101.49c0,179.63-124.5,325.11-329.87,325.11c-205.37,0-328.59-145.48-328.59-325.11
		c0-178.37,125.79-325.11,327.31-325.11C5021.38,776.38,5151.02,923.12,5151.02,1101.49z M4649.15,1101.49
		c0,94.88,57.76,183.43,172,183.43c114.24,0,172-88.55,172-183.43c0-93.61-66.75-184.69-172-184.69
		C4708.19,916.8,4649.15,1007.88,4649.15,1101.49z"/>
	<path class="st5" d="M5756.85,1412.69v-326.38c0-94.88-52.63-166.98-152.74-166.98c-96.27,0-161.73,79.7-161.73,174.57v318.79
		h-155.31V787.77h139.91l10.27,84.76c64.18-61.99,128.36-93.61,207.94-93.61c148.89,0,268.26,110.06,268.26,306.14v327.64H5756.85z"
		/>
</g>
<path class="st6" d="M626.82,829.5l577.75-328.18l350.92,195.04v150.61l-83.44-50.91V743.5l-270.05-152.72L699.57,876.64l1.2,216.28
	l-74.1-40.97V829.5H626.82z M431.18,1363.87l348.06,194.59l576.99-325.32v-224.56l-73.05-38.86l0.9,216.73l-504.55,286.61
	l-271.85-153.62v-55.43l-76.51-46.54V1363.87z"/>
<g>
	<g>
		<defs>
			<rect id="SVGID_1_" x="16.8" y="23.97" width="1906.8" height="1906.8"/>
		</defs>
		<clipPath id="SVGID_00000057119726593345641600000009857747152944624018_">
			<use xlink:href="#SVGID_1_"  style="overflow:visible;"/>
		</clipPath>
		<g style="clip-path:url(#SVGID_00000057119726593345641600000009857747152944624018_);">
			<defs>
				<rect id="SVGID_00000009552938670625715350000005698177308592649632_" x="16.8" y="23.97" width="1906.8" height="1906.8"/>
			</defs>
			<clipPath id="SVGID_00000083785925309031867340000010937332753836322458_">
				<use xlink:href="#SVGID_00000009552938670625715350000005698177308592649632_"  style="overflow:visible;"/>
			</clipPath>
			<path style="display:none;clip-path:url(#SVGID_00000083785925309031867340000010937332753836322458_);fill:#151822;" d="
				M970.2,1896.65L970.2,1896.65c-507.7,0-919.28-411.57-919.28-919.28v0c0-507.7,411.57-919.27,919.28-919.27h0
				c507.7,0,919.28,411.57,919.28,919.27v0C1889.48,1485.07,1477.91,1896.65,970.2,1896.65"/>
			<path style="clip-path:url(#SVGID_00000083785925309031867340000010937332753836322458_);fill:#16B7EC;" d="M983.27,233.08
				l151.39,91.22l-79.58,45.29l-67.93-34.32l-567.4,329.35l-1.94,361.01l452.24,276.9l-90.57,49.17l-450.94-273.67V611.56
				L983.27,233.08z M1170.96,606l-95.21,48.23l440.23,271.48l-0.21,364.9l-548.97,331.56l-61.85-36.13l-78.08,44.13l142.32,91.49
				l640.03-380.04l2.66-463.3L1170.96,606z"/>
			<path style="clip-path:url(#SVGID_00000083785925309031867340000010937332753836322458_);fill:#16B7EC;" d="M551.83,747.96
				l659.49-374.51l400.56,222.53v171.95l-95.21-58.14v-59.93l-308.19-174.4L634.98,801.82l1.37,246.78l-84.53-46.73V747.96z
				 M328.53,1357.86l397.28,222.15l658.49-371.35V952.34l-83.33-44.29l1.11,247.4l-575.9,327.03l-310.27-175.24v-63.24l-87.37-53.21
				V1357.86z"/>
		</g>
	</g>
</g>
</svg>
