<?xml version="1.0" encoding="utf-8"?>
<!-- Generator: Adobe Illustrator 22.1.0, SVG Export Plug-In . SVG Version: 6.00 Build 0)  -->
<svg version="1.1" id="Ebene_1" xmlns="http://www.w3.org/2000/svg" xmlns:xlink="http://www.w3.org/1999/xlink" x="0px" y="0px"
	 viewBox="0 0 1133.9 1133.9" style="enable-background:new 0 0 1133.9 1133.9;" xml:space="preserve">
<style type="text/css">
	.st0{fill:#1A1A1A;}
	.st1{fill:#2F99BB;}
	.st2{fill:#3099BB;}
</style>
<title>zationLogoFaviconFullFilled</title>
<path class="st0" d="M587.2,1133.9h-40.6C244.7,1133.9,0,889.1,0,587.2l0-40.6C0,244.7,244.7,0,546.6,0l40.6,0
	c301.9,0,546.6,244.7,546.6,546.6v40.6C1133.9,889.1,889.1,1133.9,587.2,1133.9z"/>
<path class="st1" d="M575,107.9l93.4,56.3l-49.1,27.9l-41.9-21.2L227.5,374l-1.2,222.6l278.9,170.8l-55.9,30.3L171.2,629V341.3
	L575,107.9z M690.7,337.9L632,367.6l271.5,167.4l-0.1,225L564.8,964.6l-38.1-22.3l-48.2,27.2l87.8,56.4L961,791.6l1.6-285.7
	L690.7,337.9z"/>
<path class="st2" d="M308.9,425.4l406.7-231l247,137.2v106l-58.7-35.9v-37L713.9,257.4L360.2,458.7l0.8,152.2L308.9,582V425.4z
	 M171.2,801.6l245,137l406.1-229V551.5l-51.4-27.3l0.7,152.6L416.4,878.4L225.1,770.4v-39l-53.9-32.8V801.6z"/>
</svg>
