<?xml version="1.0" encoding="utf-8"?>
<svg version="1.1" id="Ebene_1" xmlns="http://www.w3.org/2000/svg" xmlns:xlink="http://www.w3.org/1999/xlink" x="0px" y="0px"
	 viewBox="0 0 1133.9 1133.9" style="enable-background:new 0 0 1133.9 1133.9;" xml:space="preserve">
<style type="text/css">
	.st0{fill:#16B7EC;}
</style>
<title>zationLogoFaviconFullFilled</title>
<path class="st0" d="M574.7,124.3l90,54.2l-47.3,26.9L577,185.1L239.6,381l-1.2,214.7l268.9,164.7l-53.9,29.2L185.4,626.8V349.4
	L574.7,124.3z M686.3,346.1l-56.6,28.7l261.8,161.4l-0.1,217L564.9,950.3l-36.8-21.5l-46.4,26.2l84.6,54.4l380.6-226l1.6-275.5
	L686.3,346.1z"/>
<path class="st0" d="M318.1,430.5l392.2-222.7l238.2,132.3v102.2l-56.6-34.6v-35.6L708.6,268.5l-341,194.1l0.8,146.7l-50.3-27.8
	V430.5z M185.4,793.2l236.2,132.1l391.6-220.8V552l-49.6-26.3l0.7,147.1L421.8,867.3L237.3,763.1v-37.6l-52-31.6V793.2z"/>
</svg>
